<mxfile host="app.diagrams.net" modified="2022-04-25T09:22:00.851Z" agent="5.0 (Windows NT 10.0; Win64; x64) AppleWebKit/537.36 (KHTML, like Gecko) Chrome/100.0.4896.127 Safari/537.36" etag="ecuq_0dMVvgME9GO45mn" version="17.4.6" type="github">
  <diagram id="CRvLViPvwFJURzjCU27Z" name="Page-1">
    <mxGraphModel dx="1021" dy="574" grid="1" gridSize="10" guides="1" tooltips="1" connect="1" arrows="1" fold="1" page="1" pageScale="1" pageWidth="827" pageHeight="1169" math="0" shadow="0">
      <root>
        <mxCell id="0" />
        <mxCell id="1" parent="0" />
        <mxCell id="ow7pJJJ2NBHxoUOOTGKa-24" value="&lt;span style=&quot;font-size: 11px&quot;&gt;&lt;b&gt;ask&lt;/b&gt;&lt;/span&gt;" style="text;html=1;strokeColor=none;fillColor=none;align=center;verticalAlign=middle;whiteSpace=wrap;rounded=0;fontSize=12;rotation=-90;" vertex="1" parent="1">
          <mxGeometry x="345" y="428.8" width="120" height="26.15" as="geometry" />
        </mxCell>
        <mxCell id="ow7pJJJ2NBHxoUOOTGKa-25" value="&lt;span style=&quot;font-size: 11px&quot;&gt;&lt;b&gt;answer&lt;/b&gt;&lt;/span&gt;" style="text;html=1;strokeColor=none;fillColor=none;align=center;verticalAlign=middle;whiteSpace=wrap;rounded=0;fontSize=12;rotation=-90;" vertex="1" parent="1">
          <mxGeometry x="362" y="426.8" width="120" height="26.15" as="geometry" />
        </mxCell>
        <mxCell id="ow7pJJJ2NBHxoUOOTGKa-26" value="" style="endArrow=none;dashed=1;html=1;rounded=0;" edge="1" parent="1">
          <mxGeometry width="50" height="50" relative="1" as="geometry">
            <mxPoint x="205" y="220" as="sourcePoint" />
            <mxPoint x="640" y="220" as="targetPoint" />
          </mxGeometry>
        </mxCell>
        <mxCell id="ow7pJJJ2NBHxoUOOTGKa-28" value="" style="endArrow=none;dashed=1;html=1;rounded=0;" edge="1" parent="1">
          <mxGeometry width="50" height="50" relative="1" as="geometry">
            <mxPoint x="640" y="310" as="sourcePoint" />
            <mxPoint x="640" y="220" as="targetPoint" />
          </mxGeometry>
        </mxCell>
        <mxCell id="ow7pJJJ2NBHxoUOOTGKa-29" value="" style="endArrow=none;dashed=1;html=1;rounded=0;" edge="1" parent="1">
          <mxGeometry width="50" height="50" relative="1" as="geometry">
            <mxPoint x="205" y="310" as="sourcePoint" />
            <mxPoint x="640" y="310" as="targetPoint" />
          </mxGeometry>
        </mxCell>
        <mxCell id="ow7pJJJ2NBHxoUOOTGKa-30" value="&lt;b style=&quot;font-size: 15px&quot;&gt;news API&lt;/b&gt;" style="text;html=1;strokeColor=none;fillColor=none;align=center;verticalAlign=middle;whiteSpace=wrap;rounded=0;fontSize=9;" vertex="1" parent="1">
          <mxGeometry x="142" y="218" width="200" height="30" as="geometry" />
        </mxCell>
        <mxCell id="ow7pJJJ2NBHxoUOOTGKa-64" value="&lt;span style=&quot;font-size: 11px&quot;&gt;&lt;b&gt;Response&lt;/b&gt;&lt;/span&gt;" style="text;html=1;strokeColor=none;fillColor=none;align=center;verticalAlign=middle;whiteSpace=wrap;rounded=0;fontSize=12;rotation=37;" vertex="1" parent="1">
          <mxGeometry x="277" y="318.8" width="120" height="26.15" as="geometry" />
        </mxCell>
        <mxCell id="ow7pJJJ2NBHxoUOOTGKa-68" value="&lt;b style=&quot;font-size: 11px&quot;&gt;find unexist Answer&lt;/b&gt;" style="text;html=1;strokeColor=none;fillColor=none;align=center;verticalAlign=middle;whiteSpace=wrap;rounded=0;fontSize=12;rotation=331;" vertex="1" parent="1">
          <mxGeometry x="422" y="305.8" width="120" height="26.15" as="geometry" />
        </mxCell>
        <mxCell id="ow7pJJJ2NBHxoUOOTGKa-69" value="&lt;b style=&quot;font-size: 11px&quot;&gt;Response&lt;/b&gt;" style="text;html=1;strokeColor=none;fillColor=none;align=center;verticalAlign=middle;whiteSpace=wrap;rounded=0;fontSize=12;rotation=330;" vertex="1" parent="1">
          <mxGeometry x="433" y="315.8" width="120" height="26.15" as="geometry" />
        </mxCell>
        <mxCell id="ow7pJJJ2NBHxoUOOTGKa-71" value="&lt;b style=&quot;font-size: 11px&quot;&gt;find questions&lt;/b&gt;" style="text;html=1;strokeColor=none;fillColor=none;align=center;verticalAlign=middle;whiteSpace=wrap;rounded=0;fontSize=12;rotation=-90;" vertex="1" parent="1">
          <mxGeometry x="221" y="187.8" width="120" height="26.15" as="geometry" />
        </mxCell>
        <mxCell id="ow7pJJJ2NBHxoUOOTGKa-72" value="&lt;b style=&quot;font-size: 11px&quot;&gt;return data&lt;/b&gt;" style="text;html=1;strokeColor=none;fillColor=none;align=center;verticalAlign=middle;whiteSpace=wrap;rounded=0;fontSize=12;rotation=-90;" vertex="1" parent="1">
          <mxGeometry x="236" y="188.8" width="120" height="26.15" as="geometry" />
        </mxCell>
        <mxCell id="ow7pJJJ2NBHxoUOOTGKa-74" value="&lt;span style=&quot;font-size: 11px&quot;&gt;&lt;b&gt;search &amp;amp; scrap&amp;nbsp;&lt;/b&gt;&lt;/span&gt;" style="text;html=1;strokeColor=none;fillColor=none;align=center;verticalAlign=middle;whiteSpace=wrap;rounded=0;fontSize=12;rotation=-90;" vertex="1" parent="1">
          <mxGeometry x="482" y="187.8" width="120" height="26.15" as="geometry" />
        </mxCell>
        <mxCell id="ow7pJJJ2NBHxoUOOTGKa-75" value="&lt;span style=&quot;font-size: 11px&quot;&gt;&lt;b&gt;return data&lt;/b&gt;&lt;/span&gt;" style="text;html=1;strokeColor=none;fillColor=none;align=center;verticalAlign=middle;whiteSpace=wrap;rounded=0;fontSize=12;rotation=-90;" vertex="1" parent="1">
          <mxGeometry x="499" y="186.8" width="120" height="26.15" as="geometry" />
        </mxCell>
        <mxCell id="ow7pJJJ2NBHxoUOOTGKa-77" value="&lt;span style=&quot;font-size: 11px&quot;&gt;&lt;b&gt;save scrapped Data&lt;/b&gt;&lt;/span&gt;" style="text;html=1;strokeColor=none;fillColor=none;align=center;verticalAlign=middle;whiteSpace=wrap;rounded=0;fontSize=12;rotation=0;" vertex="1" parent="1">
          <mxGeometry x="368" y="108.80000000000001" width="120" height="26.15" as="geometry" />
        </mxCell>
        <mxCell id="ow7pJJJ2NBHxoUOOTGKa-3" value="" style="endArrow=none;dashed=1;html=1;dashPattern=1 3;strokeWidth=2;rounded=0;fontSize=9;" edge="1" parent="1">
          <mxGeometry width="50" height="50" relative="1" as="geometry">
            <mxPoint x="28" y="550" as="sourcePoint" />
            <mxPoint x="28" y="41" as="targetPoint" />
          </mxGeometry>
        </mxCell>
        <mxCell id="ow7pJJJ2NBHxoUOOTGKa-4" value="" style="endArrow=none;dashed=1;html=1;dashPattern=1 3;strokeWidth=2;rounded=0;fontSize=9;" edge="1" parent="1">
          <mxGeometry width="50" height="50" relative="1" as="geometry">
            <mxPoint x="28" y="41" as="sourcePoint" />
            <mxPoint x="797.0064516129032" y="41" as="targetPoint" />
          </mxGeometry>
        </mxCell>
        <mxCell id="ow7pJJJ2NBHxoUOOTGKa-5" value="" style="endArrow=none;dashed=1;html=1;dashPattern=1 3;strokeWidth=2;rounded=0;fontSize=9;" edge="1" parent="1">
          <mxGeometry width="50" height="50" relative="1" as="geometry">
            <mxPoint x="798" y="550" as="sourcePoint" />
            <mxPoint x="798.0051612903226" y="41" as="targetPoint" />
          </mxGeometry>
        </mxCell>
        <mxCell id="ow7pJJJ2NBHxoUOOTGKa-6" value="" style="endArrow=none;dashed=1;html=1;dashPattern=1 3;strokeWidth=2;rounded=0;fontSize=9;" edge="1" parent="1">
          <mxGeometry width="50" height="50" relative="1" as="geometry">
            <mxPoint x="29.99741935483871" y="560" as="sourcePoint" />
            <mxPoint x="799.0038709677419" y="560" as="targetPoint" />
          </mxGeometry>
        </mxCell>
        <mxCell id="ow7pJJJ2NBHxoUOOTGKa-7" value="&lt;font style=&quot;font-size: 20px&quot;&gt;&lt;b&gt;&lt;br&gt;&lt;/b&gt;&lt;/font&gt;&lt;font style=&quot;font-size: 20px&quot;&gt;&lt;b&gt;&lt;span style=&quot;font-family: &amp;#34;times new roman&amp;#34;&quot;&gt;Questions&amp;nbsp;&lt;/span&gt;&lt;span style=&quot;font-family: &amp;#34;times new roman&amp;#34;&quot;&gt;module&lt;/span&gt;&lt;/b&gt;&lt;/font&gt;" style="text;html=1;strokeColor=none;fillColor=none;align=center;verticalAlign=middle;whiteSpace=wrap;rounded=0;fontSize=9;" vertex="1" parent="1">
          <mxGeometry x="317.6258064516129" y="41" width="199.74193548387095" height="30" as="geometry" />
        </mxCell>
        <mxCell id="ow7pJJJ2NBHxoUOOTGKa-9" value="&lt;p class=&quot;MsoNormal&quot;&gt;&lt;span style=&quot;color: rgba(0 , 0 , 0 , 0) ; font-family: monospace ; font-size: 0px&quot;&gt;sss%3CmxGraphModel%3E%3Croot%3E%3CmxCell%20id%3D%220%22%2F%3E%3CmxCell%20id%3D%221%22%20parent%3D%220%22%2F%3E%3CmxCell%20id%3D%222%22%20value%3D%22%26lt%3Bp%20class%3D%26quot%3BMsoNormal%26quot%3B%26gt%3B%26lt%3Bspan%20style%3D%26quot%3Bfont-family%3A%20%26amp%3B%2334%3Btimes%20new%20roman%26amp%3B%2334%3B%20%3B%20font-size%3A%2010.5000pt%26quot%3B%26gt%3Bquestions%26amp%3Bnbsp%3B%26lt%3B%2Fspan%26gt%3B%26lt%3Bspan%20style%3D%26quot%3Bfont-family%3A%20%26amp%3B%2334%3Btimes%20new%20roman%26amp%3B%2334%3B%20%3B%20font-size%3A%2010.5pt%26quot%3B%26gt%3Bmodule%26lt%3B%2Fspan%26gt%3B%26lt%3B%2Fp%26gt%3B%22%20style%3D%22rounded%3D1%3BwhiteSpace%3Dwrap%3Bhtml%3D1%3BfontSize%3D12%3Bglass%3D0%3BstrokeWidth%3D1%3Bshadow%3D0%3B%22%20vertex%3D%221%22%20parent%3D%221%22%3E%3CmxGeometry%20x%3D%22420%22%20y%3D%22100%22%20width%3D%22120%22%20height%3D%2240%22%20as%3D%22geometry%22%2F%3E%3C%2FmxCell%3E%3C%2Froot%3E%3C%2FmxGraphModel%&lt;/span&gt;&lt;span style=&quot;font-family: &amp;#34;times new roman&amp;#34; ; font-size: 10.5pt&quot;&gt;Questions Handler&amp;nbsp;&lt;/span&gt;&lt;br&gt;&lt;/p&gt;" style="rounded=1;whiteSpace=wrap;html=1;fontSize=12;glass=0;strokeWidth=1;shadow=0;" vertex="1" parent="1">
          <mxGeometry x="355.0774193548387" y="360" width="119.84516129032258" height="40" as="geometry" />
        </mxCell>
        <mxCell id="ow7pJJJ2NBHxoUOOTGKa-17" value="&lt;p class=&quot;MsoNormal&quot;&gt;&lt;span style=&quot;color: rgba(0 , 0 , 0 , 0) ; font-family: monospace ; font-size: 0px&quot;&gt;sss%3CmxGraphModel%3E%3Croot%3E%3CmxCell%20id%3D%220%22%2F%3E%3CmxCell%20id%3D%221%22%20parent%3D%220%22%2F%3E%3CmxCell%20id%3D%222%22%20value%3D%22%26lt%3Bp%20class%3D%26quot%3BMsoNormal%26quot%3B%26gt%3B%26lt%3Bspan%20style%3D%26quot%3Bfont-family%3A%20%26amp%3B%2334%3Btimes%20new%20roman%26amp%3B%2334%3B%20%3B%20font-size%3A%2010.5000pt%26quot%3B%26gt%3Bquestions%26amp%3Bnbsp%3B%26lt%3B%2Fspan%26gt%3B%26lt%3Bspan%20style%3D%26quot%3Bfont-family%3A%20%26amp%3B%2334%3Btimes%20new%20roman%26amp%3B%2334%3B%20%3B%20font-size%3A%2010.5pt%26quot%3B%26gt%3Bmodule%26lt%3B%2Fspan%26gt%3B%26lt%3B%2Fp%26gt%3B%22%20style%3D%22rounded%3D1%3BwhiteSpace%3Dwrap%3Bhtml%3D1%3BfontSize%3D12%3Bglass%3D0%3BstrokeWidth%3D1%3Bshadow%3D0%3B%22%20vertex%3D%221%22%20parent%3D%221%22%3E%3CmxGeometry%20x%3D%22420%22%20y%3D%22100%22%20width%3D%22120%22%20height%3D%2240%22%20as%3D%22geometry%22%2F%3E%3C%2FmxCell%3E%3C%2Froot%3E%3C%2FmxGraphModel%&lt;/span&gt;&lt;font face=&quot;times new roman&quot;&gt;&lt;span style=&quot;font-size: 10.5pt&quot;&gt;&amp;nbsp;&lt;/span&gt;&lt;span style=&quot;font-size: 14px&quot;&gt;Retrieve&lt;/span&gt;&lt;span style=&quot;font-size: 10.5pt&quot;&gt;&amp;nbsp;Question&lt;/span&gt;&lt;/font&gt;&lt;br&gt;&lt;/p&gt;" style="rounded=1;whiteSpace=wrap;html=1;fontSize=12;glass=0;strokeWidth=1;shadow=0;" vertex="1" parent="1">
          <mxGeometry x="229.73935483870966" y="250" width="119.84516129032258" height="40" as="geometry" />
        </mxCell>
        <mxCell id="ow7pJJJ2NBHxoUOOTGKa-18" value="&lt;p class=&quot;MsoNormal&quot;&gt;&lt;span style=&quot;color: rgba(0 , 0 , 0 , 0) ; font-family: monospace ; font-size: 0px&quot;&gt;sss%3CmxGraphModel%3E%3Croot%3E%3CmxCell%20id%3D%220%22%2F%3E%3CmxCell%20id%3D%221%22%20parent%3D%220%22%2F%3E%3CmxCell%20id%3D%222%22%20value%3D%22%26lt%3Bp%20class%3D%26quot%3BMsoNormal%26quot%3B%26gt%3B%26lt%3Bspan%20style%3D%26quot%3Bfont-family%3A%20%26amp%3B%2334%3Btimes%20new%20roman%26amp%3B%2334%3B%20%3B%20font-size%3A%2010.5000pt%26quot%3B%26gt%3Bquestions%26amp%3Bnbsp%3B%26lt%3B%2Fspan%26gt%3B%26lt%3Bspan%20style%3D%26quot%3Bfont-family%3A%20%26amp%3B%2334%3Btimes%20new%20roman%26amp%3B%2334%3B%20%3B%20font-size%3A%2010.5pt%26quot%3B%26gt%3Bmodule%26lt%3B%2Fspan%26gt%3B%26lt%3B%2Fp%26gt%3B%22%20style%3D%22rounded%3D1%3BwhiteSpace%3Dwrap%3Bhtml%3D1%3BfontSize%3D12%3Bglass%3D0%3BstrokeWidth%3D1%3Bshadow%3D0%3B%22%20vertex%3D%221%22%20parent%3D%221%22%3E%3CmxGeometry%20x%3D%22420%22%20y%3D%22100%22%20width%3D%22120%22%20height%3D%2240%22%20as%3D%22geometry%22%2F%3E%3C%2FmxCell%3E%3C%2Froot%3E%3C%2FmxGraphModel%&lt;/span&gt;&lt;span style=&quot;font-family: &amp;#34;times new roman&amp;#34; ; font-size: 10.5pt&quot;&gt;Find Answer&lt;/span&gt;&lt;br&gt;&lt;/p&gt;" style="rounded=1;whiteSpace=wrap;html=1;fontSize=12;glass=0;strokeWidth=1;shadow=0;" vertex="1" parent="1">
          <mxGeometry x="489.4038709677419" y="250" width="119.84516129032258" height="40" as="geometry" />
        </mxCell>
        <mxCell id="ow7pJJJ2NBHxoUOOTGKa-19" value="Users" style="rounded=0;whiteSpace=wrap;html=1;" vertex="1" parent="1">
          <mxGeometry x="385.0387096774193" y="480" width="59.92258064516129" height="30" as="geometry" />
        </mxCell>
        <mxCell id="ow7pJJJ2NBHxoUOOTGKa-20" value="&lt;p class=&quot;MsoNormal&quot;&gt;&lt;span style=&quot;color: rgba(0 , 0 , 0 , 0) ; font-family: monospace ; font-size: 0px&quot;&gt;sss%3CmxGraphModel%3E%3Croot%3E%3CmxCell%20id%3D%220%22%2F%3E%3CmxCell%20id%3D%221%22%20parent%3D%220%22%2F%3E%3CmxCell%20id%3D%222%22%20value%3D%22%26lt%3Bp%20class%3D%26quot%3BMsoNormal%26quot%3B%26gt%3B%26lt%3Bspan%20style%3D%26quot%3Bfont-family%3A%20%26amp%3B%2334%3Btimes%20new%20roman%26amp%3B%2334%3B%20%3B%20font-size%3A%2010.5000pt%26quot%3B%26gt%3Bquestions%26amp%3Bnbsp%3B%26lt%3B%2Fspan%26gt%3B%26lt%3Bspan%20style%3D%26quot%3Bfont-family%3A%20%26amp%3B%2334%3Btimes%20new%20roman%26amp%3B%2334%3B%20%3B%20font-size%3A%2010.5pt%26quot%3B%26gt%3Bmodule%26lt%3B%2Fspan%26gt%3B%26lt%3B%2Fp%26gt%3B%22%20style%3D%22rounded%3D1%3BwhiteSpace%3Dwrap%3Bhtml%3D1%3BfontSize%3D12%3Bglass%3D0%3BstrokeWidth%3D1%3Bshadow%3D0%3B%22%20vertex%3D%221%22%20parent%3D%221%22%3E%3CmxGeometry%20x%3D%22420%22%20y%3D%22100%22%20width%3D%22120%22%20height%3D%2240%22%20as%3D%22geometry%22%2F%3E%3C%2FmxCell%3E%3C%2Froot%3E%3C%2FmxGraphModel%&lt;/span&gt;&lt;span style=&quot;font-family: &amp;#34;times new roman&amp;#34; ; font-size: 10.5pt&quot;&gt;Investopedia web&amp;nbsp;&lt;/span&gt;&lt;br&gt;&lt;/p&gt;" style="rounded=1;whiteSpace=wrap;html=1;fontSize=12;glass=0;strokeWidth=1;shadow=0;" vertex="1" parent="1">
          <mxGeometry x="489.4038709677419" y="110" width="119.84516129032258" height="40" as="geometry" />
        </mxCell>
        <mxCell id="ow7pJJJ2NBHxoUOOTGKa-23" value="" style="endArrow=classic;startArrow=classic;html=1;rounded=0;entryX=0.5;entryY=1;entryDx=0;entryDy=0;" edge="1" parent="1" source="ow7pJJJ2NBHxoUOOTGKa-19" target="ow7pJJJ2NBHxoUOOTGKa-9">
          <mxGeometry width="50" height="50" relative="1" as="geometry">
            <mxPoint x="389.5329032258064" y="290" as="sourcePoint" />
            <mxPoint x="439.46838709677417" y="240" as="targetPoint" />
          </mxGeometry>
        </mxCell>
        <mxCell id="ow7pJJJ2NBHxoUOOTGKa-27" value="" style="endArrow=none;dashed=1;html=1;rounded=0;" edge="1" parent="1">
          <mxGeometry width="50" height="50" relative="1" as="geometry">
            <mxPoint x="202.77419354838707" y="310" as="sourcePoint" />
            <mxPoint x="202.77419354838707" y="220" as="targetPoint" />
          </mxGeometry>
        </mxCell>
        <mxCell id="ow7pJJJ2NBHxoUOOTGKa-31" value="" style="endArrow=classic;startArrow=classic;html=1;rounded=0;fontSize=20;exitX=0.25;exitY=0;exitDx=0;exitDy=0;entryX=0.5;entryY=1;entryDx=0;entryDy=0;" edge="1" parent="1" source="ow7pJJJ2NBHxoUOOTGKa-9" target="ow7pJJJ2NBHxoUOOTGKa-17">
          <mxGeometry width="50" height="50" relative="1" as="geometry">
            <mxPoint x="389.5329032258064" y="250" as="sourcePoint" />
            <mxPoint x="439.46838709677417" y="200" as="targetPoint" />
          </mxGeometry>
        </mxCell>
        <mxCell id="ow7pJJJ2NBHxoUOOTGKa-32" value="&lt;b style=&quot;font-size: 11px&quot;&gt;send Get Request&lt;/b&gt;" style="text;html=1;strokeColor=none;fillColor=none;align=center;verticalAlign=middle;whiteSpace=wrap;rounded=0;fontSize=12;rotation=37;" vertex="1" parent="1">
          <mxGeometry x="282.67096774193544" y="307.8" width="119.84516129032258" height="26.15" as="geometry" />
        </mxCell>
        <mxCell id="ow7pJJJ2NBHxoUOOTGKa-67" value="" style="endArrow=classic;startArrow=classic;html=1;rounded=0;fontSize=20;entryX=0.5;entryY=1;entryDx=0;entryDy=0;" edge="1" parent="1" target="ow7pJJJ2NBHxoUOOTGKa-18">
          <mxGeometry width="50" height="50" relative="1" as="geometry">
            <mxPoint x="424.9870967741935" y="357.8" as="sourcePoint" />
            <mxPoint x="474.92258064516125" y="307.8" as="targetPoint" />
          </mxGeometry>
        </mxCell>
        <mxCell id="ow7pJJJ2NBHxoUOOTGKa-21" value="&lt;span style=&quot;font-size: 12px&quot;&gt;Question Model&lt;/span&gt;" style="strokeWidth=2;html=1;shape=mxgraph.flowchart.annotation_1;align=center;pointerEvents=1;fontSize=8;" vertex="1" parent="1">
          <mxGeometry x="232.23612903225805" y="110" width="114.8516129032258" height="41" as="geometry" />
        </mxCell>
        <mxCell id="ow7pJJJ2NBHxoUOOTGKa-65" value="" style="endArrow=classic;startArrow=classic;html=1;rounded=0;fontSize=20;entryX=0.5;entryY=1;entryDx=0;entryDy=0;entryPerimeter=0;exitX=0.5;exitY=0;exitDx=0;exitDy=0;" edge="1" parent="1" source="ow7pJJJ2NBHxoUOOTGKa-17" target="ow7pJJJ2NBHxoUOOTGKa-21">
          <mxGeometry width="50" height="50" relative="1" as="geometry">
            <mxPoint x="409.50709677419354" y="350" as="sourcePoint" />
            <mxPoint x="459.4425806451613" y="300" as="targetPoint" />
          </mxGeometry>
        </mxCell>
        <mxCell id="ow7pJJJ2NBHxoUOOTGKa-73" value="" style="endArrow=classic;startArrow=classic;html=1;rounded=0;fontSize=20;entryX=0.5;entryY=1;entryDx=0;entryDy=0;" edge="1" parent="1" source="ow7pJJJ2NBHxoUOOTGKa-18" target="ow7pJJJ2NBHxoUOOTGKa-20">
          <mxGeometry width="50" height="50" relative="1" as="geometry">
            <mxPoint x="329.6103225806452" y="350" as="sourcePoint" />
            <mxPoint x="379.54580645161286" y="300" as="targetPoint" />
          </mxGeometry>
        </mxCell>
        <mxCell id="ow7pJJJ2NBHxoUOOTGKa-76" value="" style="endArrow=classic;html=1;rounded=0;fontSize=20;entryX=1;entryY=0.5;entryDx=0;entryDy=0;entryPerimeter=0;" edge="1" parent="1" source="ow7pJJJ2NBHxoUOOTGKa-20" target="ow7pJJJ2NBHxoUOOTGKa-21">
          <mxGeometry width="50" height="50" relative="1" as="geometry">
            <mxPoint x="329.6103225806452" y="290" as="sourcePoint" />
            <mxPoint x="379.54580645161286" y="240" as="targetPoint" />
          </mxGeometry>
        </mxCell>
      </root>
    </mxGraphModel>
  </diagram>
</mxfile>
